<svg xmlns="http://www.w3.org/2000/svg">
    <symbol id="i-facebook" viewBox="0 0 24 24">
        <path d="M19,4V7H17A1,1 0 0,0 16,8V10H19V13H16V20H13V13H11V10H13V7.5C13,5.56 14.57,4 16.5,4M20,2H4A2,2 0 0,0 2,4V20A2,2 0 0,0 4,22H20A2,2 0 0,0 22,20V4C22,2.89 21.1,2 20,2Z" />
    </symbol>

    <!-- https://github.com/danklammer/bytesize-icons -->

    <symbol id="i-search" viewBox="0 0 32 32" fill="none" stroke="currentcolor" stroke-linecap="round" stroke-linejoin="round" stroke-width="2">
        <circle cx="14" cy="14" r="12" />
        <path d="M23 23 L30 30"  />
    </symbol>

    <symbol id="i-close" viewBox="0 0 32 32" fill="none" stroke="currentcolor" stroke-linecap="round" stroke-linejoin="round" stroke-width="2">
        <title>Close</title>
        <path d="M2 30 L30 2 M30 30 L2 2" />
    </symbol>

    <symbol id="i-info" viewBox="0 0 32 32" fill="none" stroke="currentcolor" stroke-linecap="round" stroke-linejoin="round" stroke-width="2">
        <path d="M16 14 L16 23 M16 8 L16 10" />
        <circle cx="16" cy="16" r="14" />
    </symbol>

    <symbol id="i-bell" viewBox="0 0 32 32" fill="none" stroke="currentcolor" stroke-linecap="round" stroke-linejoin="round" stroke-width="2">
        <path d="M8 17 C8 12 9 6 16 6 23 6 24 12 24 17 24 22 27 25 27 25 L5 25 C5 25 8 22 8 17 Z M20 25 C20 25 20 29 16 29 12 29 12 25 12 25 M16 3 L16 6" />
    </symbol>
</svg>