<?xml version="1.0" encoding="UTF-8" standalone="no"?>
<svg xmlns="http://www.w3.org/2000/svg" xmlns:xlink="http://www.w3.org/1999/xlink">
    <symbol id="i-facebook" viewBox="0 0 24 24">
        <path d="M19,4V7H17A1,1 0 0,0 16,8V10H19V13H16V20H13V13H11V10H13V7.5C13,5.56 14.57,4 16.5,4M20,2H4A2,2 0 0,0 2,4V20A2,2 0 0,0 4,22H20A2,2 0 0,0 22,20V4C22,2.89 21.1,2 20,2Z" />
    </symbol>

    <!-- https://github.com/danklammer/bytesize-icons -->

    <symbol id="i-search" viewBox="0 0 32 32" fill="none" stroke="currentcolor" stroke-linecap="round" stroke-linejoin="round" stroke-width="2">
        <circle cx="14" cy="14" r="12" />
        <path d="M23 23 L30 30"  />
    </symbol>

    <symbol id="i-close" viewBox="0 0 32 32" fill="none" stroke="currentcolor" stroke-linecap="round" stroke-linejoin="round" stroke-width="2">
        <path d="M2 30 L30 2 M30 30 L2 2" />
    </symbol>

    <symbol id="i-info" viewBox="0 0 32 32" fill="none" stroke="currentcolor" stroke-linecap="round" stroke-linejoin="round" stroke-width="2">
        <path d="M16 14 L16 23 M16 8 L16 10" />
        <circle cx="16" cy="16" r="14" />
    </symbol>

    <symbol id="i-bell" viewBox="0 0 32 32" fill="none" stroke="currentcolor" stroke-linecap="round" stroke-linejoin="round" stroke-width="2">
        <path d="M8 17 C8 12 9 6 16 6 23 6 24 12 24 17 24 22 27 25 27 25 L5 25 C5 25 8 22 8 17 Z M20 25 C20 25 20 29 16 29 12 29 12 25 12 25 M16 3 L16 6" />
    </symbol>

    <symbol id="i-desktop" viewBox="0 0 32 32" fill="none" stroke="currentcolor" stroke-linecap="round" stroke-linejoin="round" stroke-width="2">
        <path d="M10 29 C10 29 10 24 16 24 22 24 22 29 22 29 L10 29 Z M2 6 L2 23 30 23 30 6 2 6 Z" />
    </symbol>

    <symbol id="si-glyph-resize-out-frame" viewBox="0 0 17 16" class="si-glyph si-glyph-resize-out-frame">
        <g stroke="none" stroke-width="1">
            <g>
                <path d="M8.994,12.967 C8.994,14.101 8.074,15.021 6.939,15.021 L3.03,15.021 C1.896,15.021 0.976,14.101 0.976,12.967 L0.976,9.057 C0.976,7.924 1.896,7.004 3.03,7.004 L6.939,7.004 C8.074,7.004 8.994,7.924 8.994,9.057 L8.994,12.967 L8.994,12.967 Z" class="si-glyph-fill"></path>
                <path d="M14.201,2.944 L15.372,5 C15.676,5 15.923,4.754 15.923,4.452 L15.942,0.648 C15.942,0.344 15.695,0.099 15.39,0.099 L11.625,0.082 C11.318,0.082 11.072,0.326 11.072,0.63 L13.086,1.836 L9.27,5.63 C9.115,5.782 9.039,5.982 9.039,6.181 C9.039,6.383 9.115,6.581 9.27,6.734 C9.579,7.04 10.079,7.04 10.387,6.734 L14.201,2.944 L14.201,2.944 Z" class="si-glyph-fill"></path>
                <path d="M15.04,7.021 L15.04,13.605 C15.04,14.4 14.397,15.046 13.604,15.046 L2.375,15.046 C1.584,15.046 0.939,14.4 0.939,13.605 L0.939,2.396 C0.939,1.602 1.584,0.956 2.375,0.956 L8.979,0.956 L8.979,0.026 L2.056,0.026 C0.927,0.026 0.007,0.947 0.007,2.079 L0.007,13.911 C0.007,15.042 0.927,15.964 2.056,15.964 L13.937,15.964 C15.068,15.964 15.988,15.042 15.988,13.911 L15.988,7.021 L15.04,7.021 L15.04,7.021 Z" class="si-glyph-fill"></path>
            </g>
        </g>
    </symbol>

    <symbol id="i-9dots" viewBox="0 0 28 28">
        <circle cx="4.2969" cy="4.2969" r="3.7969"/>
        <circle cx="14" cy="14" r="3.7969"/>
        <circle cx="4.2969" cy="14" r="3.7969"/>
        <circle cx="14" cy="4.2969" r="3.7969"/>
        <circle cx="23.7031" cy="4.2969" r="3.7969"/>
        <circle cx="23.7031" cy="14" r="3.7969"/>
        <circle cx="4.2969" cy="23.7031" r="3.7969"/>
        <circle cx="14" cy="23.7031" r="3.7969"/>
        <circle cx="23.7031" cy="23.7031" r="3.7969"/>
    </symbol>

    <symbol id="i-link" viewBox="0 0 32 32" width="32" height="32" fill="none" stroke="currentcolor" stroke-linecap="round" stroke-linejoin="round" stroke-width="2">
        <path d="M18 8 C18 8 24 2 27 5 30 8 29 12 24 16 19 20 16 21 14 17 M14 24 C14 24 8 30 5 27 2 24 3 20 8 16 13 12 16 11 18 15" />
    </symbol>

    <symbol id="i-bug" x="0px" y="0px" viewBox="0 0 20 20" enable-background="new 0 0 20 20" xml:space="preserve">
        <path d="M10,1C7.7907715,1,6,2.7908325,6,5h8C14,2.7908325,12.2092285,1,10,1z M19,10h-3V7.5031738  c0-0.02771-0.0065918-0.0535278-0.0080566-0.0808716l2.2150879-2.21521c0.390625-0.3905029,0.390625-1.0236816,0-1.4141846  c-0.3903809-0.390564-1.0236816-0.390564-1.4140625,0l-2.215332,2.21521C14.550293,6.0066528,14.5246582,6,14.4970703,6H5.5029297  C5.4753418,6,5.449707,6.0066528,5.4223633,6.0081177l-2.215332-2.21521c-0.3903809-0.390564-1.0236816-0.390564-1.4140625,0  c-0.390625,0.3905029-0.390625,1.0236816,0,1.4141846l2.2150879,2.21521C4.0065918,7.449646,4,7.4754639,4,7.5031738V10H1  c-0.5522461,0-1,0.4476929-1,1c0,0.5522461,0.4477539,1,1,1h3c0,0.7799683,0.15625,1.520813,0.4272461,2.2037354  c-0.0441895,0.0316162-0.0947266,0.0494995-0.1342773,0.0891724l-2.8286133,2.8283691  c-0.3903809,0.390564-0.3903809,1.0237427,0,1.4142456c0.390625,0.3905029,1.0239258,0.3905029,1.4143066,0L5.4802246,15.93396  C6.3725586,16.9555054,7.6027832,17.6751099,9,17.9100342V8h2v9.9100342  c1.3972168-0.2349243,2.6274414-0.9545288,3.5197754-1.9760132l2.6015625,2.6015015  c0.3903809,0.3905029,1.0236816,0.3905029,1.4143066,0c0.3903809-0.3905029,0.3903809-1.0236816,0-1.4142456l-2.8286133-2.8283691  c-0.0395508-0.0396729-0.0900879-0.0575562-0.1342773-0.0891724C15.84375,13.520813,16,12.7799683,16,12h3  c0.5522461,0,1-0.4477539,1-1C20,10.4476929,19.5522461,10,19,10z"/>
    </symbol>

</svg>