<svg id="SignOut" data-name="Sign Out" xmlns="http://www.w3.org/2000/svg" 
viewBox="0 0 36 36"
version="1.1"
shape-rendering="geometricPrecision">
<defs>
    <style>
        .cls-1 {
            fill: none;
            stroke: #000;
            stroke-linecap: round;
            stroke-miterlimit:10;
            stroke-width:1.5px;
        }
    </style>
</defs>
<title>os-btn-sign-out-36</title>
<path d="M18,1.5A16.5,16.5,0,1,1,1.5,18,16.5187,16.5187,0,0,1,18,1.5M18,0h0A18.0529,18.0529,0,0,0,0,18H0A18.0529,18.0529,0,0,0,18,36h0A18.0529,18.0529,0,0,0,36,18h0A18.0529,18.0529,0,0,0,18,0Z"/>
<line class="cls-1" x1="8.5" y1="18" x2="27.5" y2="18"/>
<line class="cls-1" x1="21.5" y1="12" x2="27.5" y2="18"/>
<line class="cls-1" x1="21.5" y1="24" x2="27.5" y2="18"/>
</svg>