<?xml version="1.0" encoding="utf-8"?>
<!-- Generator: Adobe Illustrator 21.0.2, SVG Export Plug-In . SVG Version: 6.00 Build 0)  -->
<svg version="1.1" id="Layer_1" xmlns="http://www.w3.org/2000/svg" xmlns:xlink="http://www.w3.org/1999/xlink" x="0px" y="0px"
	 viewBox="0 0 1360 300" style="enable-background:new 0 0 1360 300;" xml:space="preserve">
<g>
	<path d="M268.6,254.2c-28.8,28.6-64.9,42.8-108.2,42.8c-43.3,0-79.2-14.2-107.8-42.6C24.1,226,9.8,191.2,9.8,150.1
		C9.8,109.2,24.2,74.5,53,46C81.9,17.4,117.9,3.1,161.2,3.1c43.3,0,79.2,14.2,107.8,42.6c28.5,28.4,42.8,63.2,42.8,104.3
		C311.8,191,297.4,225.7,268.6,254.2z M99.5,213.4c16.2,17.3,36.8,26,61.7,26c24.9,0,45.3-8.6,61.3-25.8c16-17.2,24-38.4,24-63.5
		c0-24.9-8.1-46-24.4-63.3c-16.2-17.3-36.8-26-61.7-26c-24.9,0-45.3,8.6-61.3,25.8c-16,17.2-23.9,38.4-23.9,63.5
		C75.2,175,83.3,196.1,99.5,213.4z"/>
	<path d="M437.2,296.2c-34.4,0-65.5-11-93.4-32.9l26.4-40.6c23.8,17.3,46.7,26,68.6,26c17.3,0,26-5.7,26-17c0-1.4-0.2-2.7-0.6-4.1
		c-0.4-1.3-1.2-2.6-2.2-3.7c-1.1-1.1-2.2-2.1-3.5-3c-1.2-0.9-2.8-1.9-4.9-2.8c-2-0.9-3.8-1.8-5.3-2.4c-1.5-0.7-3.6-1.5-6.3-2.4
		c-2.7-0.9-5-1.7-6.9-2.2c-1.9-0.5-4.5-1.3-7.7-2.2c-3.2-0.9-5.8-1.7-7.7-2.2c-9.2-2.7-17-5.5-23.3-8.3c-6.4-2.8-13.1-6.8-20.1-11.8
		c-7-5-12.4-11.4-16-19.1c-3.7-7.7-5.5-16.7-5.5-27c0-21.4,7.6-38.2,22.7-50.5c15.2-12.3,34.1-18.5,56.8-18.5
		c29.2,0,56.3,8.4,81.2,25.2L492,139.1c-23-13.5-42.6-20.3-58.9-20.3c-15.2,0-22.7,5.3-22.7,15.8c0,7.3,12.4,15.2,37.3,23.5
		c3,1.1,5.3,1.9,6.9,2.4c7.3,2.4,13.5,4.7,18.7,6.9c5.1,2.2,11,5.1,17.5,8.9c6.5,3.8,11.7,7.8,15.6,12c3.9,4.2,7.2,9.5,9.9,16
		c2.7,6.5,4.1,13.7,4.1,21.5c0,23.3-7.6,40.8-22.9,52.6C482.2,290.3,462.1,296.2,437.2,296.2z"/>
	<path d="M607.7,293.8l-67-219.2h62.5l34.9,131.9l41-132.7h53.2l41.4,133.1l35.7-132.3h61.3L803,293.8h-55.6l-41.8-133.6L663,293.8
		H607.7z"/>
	<path d="M1001.1,297c-33,0-60.2-10.5-81.6-31.5c-21.4-21-32.1-48.2-32.1-81.8c0-31.7,10.2-58.5,30.4-80.4
		c20.3-21.9,46-32.9,77.1-32.9c34.4,0,60.6,11.4,78.8,34.1c18.1,22.7,27.2,50.7,27.2,84c0,3.2-0.3,8.7-0.8,16.2H948.7
		c3,13.8,9.1,24.4,18.3,31.7c9.2,7.3,20.8,11,34.9,11c19.2,0,36.8-7.4,52.8-22.3l35.3,31.3C1068.1,283.5,1038.4,297,1001.1,297z
		 M947.9,166.3h93c-1.9-14.1-6.8-25.3-14.8-33.7c-8-8.4-18.3-12.6-31.1-12.6c-12.5,0-22.8,4.1-31.1,12.4
		C955.7,140.7,950.4,152,947.9,166.3z"/>
	<path d="M1249.9,297c-33,0-60.2-10.5-81.6-31.5c-21.4-21-32.1-48.2-32.1-81.8c0-31.7,10.2-58.5,30.4-80.4
		c20.3-21.9,46-32.9,77.1-32.9c34.4,0,60.6,11.4,78.8,34.1c18.1,22.7,27.2,50.7,27.2,84c0,3.2-0.3,8.7-0.8,16.2h-151.4
		c3,13.8,9.1,24.4,18.3,31.7c9.2,7.3,20.8,11,34.9,11c19.2,0,36.8-7.4,52.8-22.3l35.3,31.3C1316.9,283.5,1287.3,297,1249.9,297z
		 M1196.8,166.3h93c-1.9-14.1-6.8-25.3-14.8-33.7c-8-8.4-18.3-12.6-31.1-12.6c-12.5,0-22.8,4.1-31.1,12.4
		C1204.5,140.7,1199.2,152,1196.8,166.3z"/>
</g>
</svg>
