<svg id="Layer_1" data-name="Layer 1" xmlns="http://www.w3.org/2000/svg" viewBox="0 0 256 256">
    <defs>
    <style>
    .cls-1 {
    fill: #4486f4;
    }
    .cls-2 {
    fill: #426fc2;
    }
    .cls-3 {fill: #fff;
    }
    </style>
    </defs>
    <title>account</title>
    <path class="cls-1" d="M128.12111,255c90.77739-41.89652,94.18582-95.34281,95.14174-137.03826.48063-20.9434,0-83.79479,0-83.79479C161.28981,21.07478,128.12111,1,128.12111,1S94.95241,21.07654,32.97937,34.1687c0,0-.48061,62.85138,0,83.79479C33.93531,159.65805,37.34371,213.10348,128.12111,255Z"/>
    <circle class="cls-2" cx="128.12111" cy="120.61173" r="62.84698"/>
    <circle class="cls-3" cx="128.12111" cy="96.78904" r="26.84044"/>
    <path class="cls-3" d="M128.12111,133.78414c-20.864,0-39.519,8.53028-52.12527,21.94785a62.85966,62.85966,0,0,0,104.25054.00086C167.64011,142.31443,148.98515,133.78414,128.12111,133.78414Z"/>
</svg>